<svg xmlns="http://www.w3.org/2000/svg" viewBox="0 0 1440 900" width="1440" height="900">
  <g stroke="#818cf8" stroke-width="0.8" fill="none" opacity="0.35">
    <line x1="100" y1="100" x2="250" y2="180"/>
    <line x1="100" y1="100" x2="180" y2="280"/>
    <line x1="100" y1="100" x2="300" y2="120"/>
    <line x1="250" y1="180" x2="400" y2="250"/>
    <line x1="250" y1="180" x2="350" y2="380"/>
    <line x1="180" y1="280" x2="350" y2="380"/>
    <line x1="180" y1="280" x2="300" y2="120"/>
    <line x1="300" y1="120" x2="400" y2="250"/>
    <line x1="400" y1="250" x2="520" y2="200"/>
    <line x1="400" y1="250" x2="500" y2="400"/>
    <line x1="350" y1="380" x2="500" y2="400"/>
    <line x1="520" y1="200" x2="680" y2="150"/>
    <line x1="520" y1="200" x2="650" y2="320"/>
    <line x1="500" y1="400" x2="650" y2="320"/>
    <line x1="500" y1="400" x2="700" y2="520"/>
    <line x1="680" y1="150" x2="800" y2="220"/>
    <line x1="650" y1="320" x2="800" y2="220"/>
    <line x1="650" y1="320" x2="850" y2="420"/>
    <line x1="700" y1="520" x2="850" y2="420"/>
    <line x1="700" y1="520" x2="900" y2="600"/>
    <line x1="800" y1="220" x2="950" y2="300"/>
    <line x1="850" y1="420" x2="950" y2="300"/>
    <line x1="850" y1="420" x2="1050" y2="500"/>
    <line x1="900" y1="600" x2="1050" y2="500"/>
    <line x1="950" y1="300" x2="1100" y2="380"/>
    <line x1="1050" y1="500" x2="1100" y2="380"/>
    <line x1="1050" y1="500" x2="1200" y2="580"/>
    <line x1="1100" y1="380" x2="1250" y2="450"/>
    <line x1="1200" y1="580" x2="1250" y2="450"/>
    <line x1="1250" y1="450" x2="1350" y2="520"/>
    <line x1="300" y1="120" x2="520" y2="200"/>
    <line x1="100" y1="100" x2="680" y2="150"/>
    <line x1="400" y1="250" x2="800" y2="220"/>
    <line x1="520" y1="200" x2="950" y2="300"/>
    <line x1="350" y1="380" x2="700" y2="520"/>
    <line x1="180" y1="280" x2="200" y2="500"/>
    <line x1="200" y1="500" x2="350" y2="380"/>
    <line x1="200" y1="500" x2="400" y2="650"/>
    <line x1="400" y1="650" x2="500" y2="400"/>
    <line x1="400" y1="650" x2="600" y2="750"/>
    <line x1="600" y1="750" x2="700" y2="520"/>
    <line x1="600" y1="750" x2="800" y2="680"/>
    <line x1="800" y1="680" x2="900" y2="600"/>
    <line x1="800" y1="680" x2="1000" y2="780"/>
    <line x1="1000" y1="780" x2="1050" y2="500"/>
    <line x1="1000" y1="780" x2="1200" y2="720"/>
    <line x1="1200" y1="720" x2="1200" y2="580"/>
    <line x1="1200" y1="720" x2="1350" y2="650"/>
    <line x1="1350" y1="650" x2="1350" y2="520"/>
  </g>
  <g fill="#818cf8" opacity="0.5">
    <circle cx="100" cy="100" r="4"/>
    <circle cx="250" cy="180" r="3.5"/>
    <circle cx="180" cy="280" r="3.5"/>
    <circle cx="300" cy="120" r="4"/>
    <circle cx="400" cy="250" r="3.5"/>
    <circle cx="350" cy="380" r="3.5"/>
    <circle cx="520" cy="200" r="4"/>
    <circle cx="500" cy="400" r="3.5"/>
    <circle cx="680" cy="150" r="3.5"/>
    <circle cx="650" cy="320" r="3.5"/>
    <circle cx="700" cy="520" r="4"/>
    <circle cx="800" cy="220" r="3.5"/>
    <circle cx="850" cy="420" r="3.5"/>
    <circle cx="900" cy="600" r="3.5"/>
    <circle cx="950" cy="300" r="4"/>
    <circle cx="1050" cy="500" r="3.5"/>
    <circle cx="1100" cy="380" r="3.5"/>
    <circle cx="1200" cy="580" r="3.5"/>
    <circle cx="1250" cy="450" r="3.5"/>
    <circle cx="1350" cy="520" r="3.5"/>
    <circle cx="200" cy="500" r="3.5"/>
    <circle cx="400" cy="650" r="3.5"/>
    <circle cx="600" cy="750" r="4"/>
    <circle cx="800" cy="680" r="3.5"/>
    <circle cx="1000" cy="780" r="3.5"/>
    <circle cx="1200" cy="720" r="3.5"/>
    <circle cx="1350" cy="650" r="3.5"/>
  </g>
</svg>
